<?xml version="1.0" encoding="UTF-8"?>
<svg width="700pt" height="700pt" version="1.1" viewBox="0 0 700 700" xmlns="http://www.w3.org/2000/svg">
 <path d="m478.36 45.09v96.387c18.945-0.4375 34.301-3.2852 41.426-4.875l-29.621-48.762c-1.6719-2.7461-0.80469-6.332 1.9375-8.0078 0.78906-0.48438 1.6836-0.77344 2.6094-0.84375 0.61328-0.042969 1.2266 0.003907 1.8242 0.15625 1.5117 0.36328 2.8125 1.3086 3.625 2.6328l33.43 55.086c28.309 0.36719 48.602-15.984 48.602-15.984 3.1328-2.4883 2.8906-7.3203-0.47656-9.4805zm-19.473 5.1055-93.516 61.238c-3.2227 2.1133-3.5469 6.7188-0.64844 9.2617 0 0 18.812 16.145 47.824 16.145zm7.8047 10.188-40.617 75.926c6.1367 1.4375 21.305 4.5 40.617 5.125zm82.715 186.22c9.5977 0 17.488-7.9258 17.488-17.523 0-6.4961-3.6211-12.207-8.9336-15.223l24.121-34.613c6.3086-6.8203 6.1562-17.645-0.46875-24.27-3.3906-3.3906-7.875-5.125-12.352-5.1328-4.4727-0.003906-8.9727 1.7305-12.469 5.2344l-48.645 54.062-2.2109 2.4492h-3.4531c-0.79688-7.1797-3.5938-13.105-8.2383-17.043-5.5547-4.7109-12.887-6.2891-20.711-6.2891h-5.8125v-35.125c-4.1094-0.10937-8-0.33594-11.68-0.625v35.754h-52.488c-8.2773 0-16.645 2.668-23.301 7.5781-6.3516 4.6836-11.234 11.793-11.668 20.336-14.266 1.8789-29.934 5.7812-41.336 12.816-3.0703 2.6523-5.3906 7.0117-5.3906 11.758 0 4.5938 1.3906 9.2266 4.5234 13.012 3.1328 3.7852 9.3594 6.2852 15.117 4.1016 0 0 1.3438-0.52344 3.7031-1.2656v7.4961h11.668v-10.562c3.3008-0.73828 7.2461-1.4961 11.668-2.2461v12.805h11.68v-46.68c0-4.8398 2.5273-8.9141 6.9727-12.191 4.4453-3.2773 10.707-5.2969 16.359-5.2969h52.488v11.668c-21.68-0.042969-43.383-0.17578-64.156 1.6641v35.023c11.254-1.0273 24.488-1.7188 39.832-1.7188 13.129-0.003906 13.074 0 24.324 0v17.535h11.68v-17.535h11.668v17.535h11.668v-17.535h11.668v17.535h11.68v-17.535zm-58.344-94.109c-3.6719 0.29297-7.5547 0.51562-11.668 0.625v17.648c0.003906 3.207 2.6016 5.8086 5.8125 5.8203 3.2266 0.011718 5.8516-2.5977 5.8555-5.8203zm-234.38 29.906c-26.25 0-46.68 20.43-46.68 46.68v11.668h35.012v-11.668c0-6.7852 4.8008-11.668 11.449-11.668 6.7227 0 11.883 5.0312 11.883 11.668 0.050782 36.773 0 73.453 0 110.22 12.191 3.2188 23.895 7.9414 35.012 10.961v-121.18c0-24.934-20.176-46.68-46.68-46.68zm-151.66 46.68v35.012h35.012v-35.012c0-6.7812 4.8008-11.668 11.449-11.668 6.7227 0 11.836 5.0273 11.836 11.668 0.039062 37.258 0 74.371 0 111.65 10.172-2.6094 21.336-4.9102 35.012-6.1289v-105.52c0-24.934-20.129-46.633-46.633-46.633-26.25 0-46.68 20.383-46.68 46.633zm362.7-29.156h5.8125c6.2109 0 10.566 1.3242 13.172 3.5312 1.9844 1.6836 3.4727 4.0586 4.0664 8.1367h-23.047zm-257.77 52.488v11.68h46.758v-11.68zm-122.46 23.344v11.668l64.25-0.003906-0.125-11.668zm122.46 0v11.668h46.758v-11.668zm105.04 0v11.668h297.51v-11.668zm-227.5 23.332v56.293c22.91-0.77734 45.137-6.0117 64.246-11.461v-44.832zm122.46 0v11.68h46.758v-11.68zm105.04 0v53.73c32.355 5.4375 66.906 2.1641 96.5-7.8711 47.797-15.531 90.812-13.82 138.3 0.86719 17.871 5.5391 35 10.762 62.707 11.449v-58.176zm-105.04 23.344v11.461c15.461-0.54688 32.32 0.21875 46.758 2.8359v-14.297zm-57.785 33.496c-17.645 5.0703-36.133 10.305-64.656 11.121 0.070313 14.023 0.71875 30.328 4.0898 46.93 25.195-1.1914 41.43-6.0977 58.848-11.062 47.52-12.648 89.844-14.93 136.07 0.73047 43.523 13.676 82.293 14.48 124.97 0 47.191-15.055 89.262-14.039 136.5-0.60547 17.637 5.0391 34.145 9.9805 60.234 11.016 2.9375-13.07 4.1797-31.031 4.25-45.141-29.266-0.72656-48.207-6.4414-66.125-11.996-45.98-13.766-86.836-15.973-131.12-0.94531-16.086 5.4688-33.383 11.234-66.219 11.234-23.664 0.47656-45.078-4.0547-66.23-11.234-44.219-14.461-90.516-11.367-130.61-0.042968zm325.55 7.3242c18.074 0 31.41 1.668 42.496 4.1719 3.1406 0.71875 5.1016 3.8438 4.3867 6.9844-0.69922 3.1523-3.8242 5.1367-6.9727 4.4336-10.234-2.3086-22.559-3.918-39.91-3.918-17.352 0-29.637 1.6094-39.875 3.918-3.1523 0.71484-6.2852-1.2734-6.9844-4.4336-0.71484-3.1445 1.2539-6.2695 4.3984-6.9844 11.082-2.5 24.391-4.1719 42.461-4.1719zm-324.08 50.895c-16.832 4.7969-59.371 11.324-59.371 11.324s11.32 31.629 20.965 44.195c64.633-14.762 108.72-28.871 171.29-7.6797 43.523 13.676 82.293 14.48 124.97 0 58.168-23.043 115.98-3.2539 171.63 7.6914 8.8555-14.074 15.754-28.91 21.535-44.102-25.688-1.3633-43.023-6.4688-59.895-11.289-45.367-12.359-86.117-14.305-129.53 0.42188-46.016 14.195-86.664 15.508-132.45 0-21.785-6.9297-42.387-10.395-63.379-10.461-20.996-0.066406-42.383 3.2617-65.762 9.9023zm66.66 7.4492c32.359 0 49.652 5.5703 65.535 10.938 3.0586 1.0312 3.6562 7.4062 3.6562 7.4062s-4.3516 4.6953-7.4062 3.6562c-15.828-5.3477-30.727-10.332-61.785-10.332-16.484 0-28.426 1.4727-38.371 3.5781-3.1523 0.65234-6.2383-1.3711-6.8945-4.5234-0.65625-3.1367 1.3438-6.2148 4.4766-6.8945 10.719-2.2695 23.594-3.8281 40.789-3.8281zm254.75 41.289c-19.078 0.023437-38.492 2.9375-59.824 10.176-46.012 14.176-86.672 15.504-132.45 0-53.754-20.539-107.01-5.3281-158.63 6.5977 19.371 17.41 45.32 35.25 75.047 35.25h301.03c29.559 0 55.477-17.734 74.785-35.035-37.305-9.1211-68.168-17.043-99.965-16.988z"/>
</svg>
